<?xml version="1.0" encoding="utf-8"?>
<!-- Generator: Adobe Illustrator 27.2.0, SVG Export Plug-In . SVG Version: 6.00 Build 0)  -->
<svg version="1.1" id="Layer_1" xmlns="http://www.w3.org/2000/svg" xmlns:xlink="http://www.w3.org/1999/xlink" x="0px" y="0px"
	 viewBox="0 0 1200 1200" style="enable-background:new 0 0 1200 1200;" xml:space="preserve">
<style type="text/css">
	.st0{fill:#DDDDDD;}
	.st1{fill:#FFFFFF;}
</style>
<rect class="st0" width="1200" height="1200"/>
<path class="st1" d="M485.6,690.3c-83,3.4-164.4,23.1-239.7,58l203.6-552.7c5.9-16.8,16-26.9,28.6-26.9H722
	c12.6,0,22.7,10.1,28.6,26.9l203.6,552.7c0,0-97.6-58.9-239.7-58.9l-89.2-276.8c-3.4-14.3-13.5-23.6-24.4-23.6
	c-10.9,0-21,9.3-24.4,22.7L485.6,690.3z M441,757.6c-16.8,55.5-5,132.9,35.3,169.9c0.5-2,1.1-3.9,1.7-5.9
	c4.2-22.9,24.7-39.1,47.9-37.9c23.6,0.8,36.2,12.6,39.5,39.5c1.7,9.3,1.7,19.3,1.7,29.4v3.4c0,22.7,5.9,43.7,18.5,62.2
	c11.6,18.2,28.3,32.5,47.9,41.2v-2.5l-1.7-2.5c-15.1-47.1-4.2-79.9,37-107.7l12.6-8.4c9.1-5.9,18.1-12.1,26.9-18.5
	c32.1-22.2,52.9-57.2,57.2-95.9c2.5-16.8,0.8-33.6-5-50.5l-6.7,5l-13.5,8.4c-58.9,27-124.8,34.9-188.4,22.7
	C510,803.9,470.5,793,441,757.6z"/>
</svg>
